# xmcd
#
# Track frame offsets: 
#        150
#        12147
#        23032
#        34440
#        46195
#        56727
#        69567
#        80932
#        91985
#        103637
#        114442
#        125302
#        138112
#        150117
#
# Disc length: 2164 seconds
#
# Revision: 3
# Processed by: cddbd v1.4PL0 Copyright (c) Steve Scherf et al.
# Submitted via: ExactAudioCopy v0.90b4
#
DISCID=ab08720e
DTITLE=Jim Reeves - Double Goldies - Disc 1
DYEAR=1900
DGENRE=Country
TTITLE0=Mexican Joe
TTITLE1=Then I'll Stop Loving You
TTITLE2=Penny Candy
TTITLE3=I'll Follow You
TTITLE4=Hillbilly Waltz
TTITLE5=Butterfly Love
TTITLE6=It's Hard To Love Just One
TTITLE7=Red Eyed And Rowdy
TTITLE8=Are You The One
TTITLE9=Let Me Remember (Things I Can't Forget)
TTITLE10=My Rambling Heart
TTITLE11=Echo Bonita
TTITLE12=How Many
TTITLE13=Let Me Love You Just A Little
EXTD=
EXTT0=
EXTT1=
EXTT2=
EXTT3=
EXTT4=
EXTT5=
EXTT6=
EXTT7=
EXTT8=
EXTT9=
EXTT10=
EXTT11=
EXTT12=
EXTT13=
PLAYORDER=
